<mxfile host="app.diagrams.net" modified="2023-07-01T01:25:42.234Z" agent="Mozilla/5.0 (Windows NT 10.0; Win64; x64) AppleWebKit/537.36 (KHTML, like Gecko) Chrome/114.0.0.0 Safari/537.36" etag="PUJbV2biNsH9hLCEs8Zk" version="21.5.2">
  <diagram name="PÃ¡gina-1" id="npD4tG-wyClw380YjnTm">
    <mxGraphModel dx="1331" dy="602" grid="1" gridSize="10" guides="1" tooltips="1" connect="1" arrows="1" fold="1" page="1" pageScale="1" pageWidth="827" pageHeight="1169" math="0" shadow="0">
      <root>
        <mxCell id="0" />
        <mxCell id="1" parent="0" />
        <mxCell id="8pqbM3VbrS218knnvy2t-1" value="Tickets" style="swimlane;fontStyle=0;childLayout=stackLayout;horizontal=1;startSize=30;horizontalStack=0;resizeParent=1;resizeParentMax=0;resizeLast=0;collapsible=1;marginBottom=0;whiteSpace=wrap;html=1;strokeColor=#001DBC;fillColor=#0050ef;swimlaneFillColor=#FFFFFF;fontColor=#ffffff;" vertex="1" parent="1">
          <mxGeometry x="90" y="221" width="140" height="300" as="geometry" />
        </mxCell>
        <mxCell id="8pqbM3VbrS218knnvy2t-2" value="Ticket_Id (PK)" style="text;strokeColor=none;fillColor=none;align=left;verticalAlign=middle;spacingLeft=4;spacingRight=4;overflow=hidden;points=[[0,0.5],[1,0.5]];portConstraint=eastwest;rotatable=0;whiteSpace=wrap;html=1;fontColor=#393C56;" vertex="1" parent="8pqbM3VbrS218knnvy2t-1">
          <mxGeometry y="30" width="140" height="30" as="geometry" />
        </mxCell>
        <mxCell id="8pqbM3VbrS218knnvy2t-8" value="TipoFactura_Id (FK)" style="text;strokeColor=none;fillColor=none;align=left;verticalAlign=middle;spacingLeft=4;spacingRight=4;overflow=hidden;points=[[0,0.5],[1,0.5]];portConstraint=eastwest;rotatable=0;whiteSpace=wrap;html=1;fontColor=#393C56;" vertex="1" parent="8pqbM3VbrS218knnvy2t-1">
          <mxGeometry y="60" width="140" height="30" as="geometry" />
        </mxCell>
        <mxCell id="8pqbM3VbrS218knnvy2t-3" value="Numero" style="text;strokeColor=none;fillColor=none;align=left;verticalAlign=middle;spacingLeft=4;spacingRight=4;overflow=hidden;points=[[0,0.5],[1,0.5]];portConstraint=eastwest;rotatable=0;whiteSpace=wrap;html=1;fontColor=#393C56;" vertex="1" parent="8pqbM3VbrS218knnvy2t-1">
          <mxGeometry y="90" width="140" height="30" as="geometry" />
        </mxCell>
        <mxCell id="8pqbM3VbrS218knnvy2t-4" value="Fecha" style="text;strokeColor=none;fillColor=none;align=left;verticalAlign=middle;spacingLeft=4;spacingRight=4;overflow=hidden;points=[[0,0.5],[1,0.5]];portConstraint=eastwest;rotatable=0;whiteSpace=wrap;html=1;fontColor=#393C56;" vertex="1" parent="8pqbM3VbrS218knnvy2t-1">
          <mxGeometry y="120" width="140" height="30" as="geometry" />
        </mxCell>
        <mxCell id="8pqbM3VbrS218knnvy2t-5" value="Cliente_Id (FK)" style="text;strokeColor=none;fillColor=none;align=left;verticalAlign=middle;spacingLeft=4;spacingRight=4;overflow=hidden;points=[[0,0.5],[1,0.5]];portConstraint=eastwest;rotatable=0;whiteSpace=wrap;html=1;fontColor=#393C56;" vertex="1" parent="8pqbM3VbrS218knnvy2t-1">
          <mxGeometry y="150" width="140" height="30" as="geometry" />
        </mxCell>
        <mxCell id="8pqbM3VbrS218knnvy2t-7" value="Cuenta_Id (FK)" style="text;strokeColor=none;fillColor=none;align=left;verticalAlign=middle;spacingLeft=4;spacingRight=4;overflow=hidden;points=[[0,0.5],[1,0.5]];portConstraint=eastwest;rotatable=0;whiteSpace=wrap;html=1;fontColor=#393C56;" vertex="1" parent="8pqbM3VbrS218knnvy2t-1">
          <mxGeometry y="180" width="140" height="30" as="geometry" />
        </mxCell>
        <mxCell id="8pqbM3VbrS218knnvy2t-6" value="FormaDePago_Id (FK)" style="text;strokeColor=none;fillColor=none;align=left;verticalAlign=middle;spacingLeft=4;spacingRight=4;overflow=hidden;points=[[0,0.5],[1,0.5]];portConstraint=eastwest;rotatable=0;whiteSpace=wrap;html=1;fontColor=#393C56;" vertex="1" parent="8pqbM3VbrS218knnvy2t-1">
          <mxGeometry y="210" width="140" height="30" as="geometry" />
        </mxCell>
        <mxCell id="8pqbM3VbrS218knnvy2t-9" value="DescuentoTotal" style="text;strokeColor=none;fillColor=none;align=left;verticalAlign=middle;spacingLeft=4;spacingRight=4;overflow=hidden;points=[[0,0.5],[1,0.5]];portConstraint=eastwest;rotatable=0;whiteSpace=wrap;html=1;fontColor=#393C56;" vertex="1" parent="8pqbM3VbrS218knnvy2t-1">
          <mxGeometry y="240" width="140" height="30" as="geometry" />
        </mxCell>
        <mxCell id="8pqbM3VbrS218knnvy2t-16" value="FechaCreacion" style="text;strokeColor=none;fillColor=none;align=left;verticalAlign=middle;spacingLeft=4;spacingRight=4;overflow=hidden;points=[[0,0.5],[1,0.5]];portConstraint=eastwest;rotatable=0;whiteSpace=wrap;html=1;fontColor=#393C56;" vertex="1" parent="8pqbM3VbrS218knnvy2t-1">
          <mxGeometry y="270" width="140" height="30" as="geometry" />
        </mxCell>
        <mxCell id="8pqbM3VbrS218knnvy2t-67" style="edgeStyle=orthogonalEdgeStyle;rounded=0;orthogonalLoop=1;jettySize=auto;html=1;exitX=1;exitY=0.5;exitDx=0;exitDy=0;strokeColor=#E07A5F;fontColor=#393C56;fillColor=#F2CC8F;" edge="1" parent="8pqbM3VbrS218knnvy2t-1" source="8pqbM3VbrS218knnvy2t-5" target="8pqbM3VbrS218knnvy2t-5">
          <mxGeometry relative="1" as="geometry" />
        </mxCell>
        <mxCell id="8pqbM3VbrS218knnvy2t-10" value="TiposFactura" style="swimlane;fontStyle=0;childLayout=stackLayout;horizontal=1;startSize=30;horizontalStack=0;resizeParent=1;resizeParentMax=0;resizeLast=0;collapsible=1;marginBottom=0;whiteSpace=wrap;html=1;strokeColor=#001DBC;fontColor=#ffffff;fillColor=#0050ef;swimlaneFillColor=#FFFFFF;" vertex="1" parent="1">
          <mxGeometry x="273.5" y="170" width="140" height="180" as="geometry" />
        </mxCell>
        <mxCell id="8pqbM3VbrS218knnvy2t-11" value="TipoFactura_Id (PK)" style="text;strokeColor=none;fillColor=none;align=left;verticalAlign=middle;spacingLeft=4;spacingRight=4;overflow=hidden;points=[[0,0.5],[1,0.5]];portConstraint=eastwest;rotatable=0;whiteSpace=wrap;html=1;fontColor=#393C56;" vertex="1" parent="8pqbM3VbrS218knnvy2t-10">
          <mxGeometry y="30" width="140" height="30" as="geometry" />
        </mxCell>
        <mxCell id="8pqbM3VbrS218knnvy2t-12" value="Nombre" style="text;strokeColor=none;fillColor=none;align=left;verticalAlign=middle;spacingLeft=4;spacingRight=4;overflow=hidden;points=[[0,0.5],[1,0.5]];portConstraint=eastwest;rotatable=0;whiteSpace=wrap;html=1;fontColor=#393C56;" vertex="1" parent="8pqbM3VbrS218knnvy2t-10">
          <mxGeometry y="60" width="140" height="30" as="geometry" />
        </mxCell>
        <mxCell id="8pqbM3VbrS218knnvy2t-13" value="Descripcion" style="text;strokeColor=none;fillColor=none;align=left;verticalAlign=middle;spacingLeft=4;spacingRight=4;overflow=hidden;points=[[0,0.5],[1,0.5]];portConstraint=eastwest;rotatable=0;whiteSpace=wrap;html=1;fontColor=#393C56;" vertex="1" parent="8pqbM3VbrS218knnvy2t-10">
          <mxGeometry y="90" width="140" height="30" as="geometry" />
        </mxCell>
        <mxCell id="8pqbM3VbrS218knnvy2t-14" value="Activo" style="text;strokeColor=none;fillColor=none;align=left;verticalAlign=middle;spacingLeft=4;spacingRight=4;overflow=hidden;points=[[0,0.5],[1,0.5]];portConstraint=eastwest;rotatable=0;whiteSpace=wrap;html=1;fontColor=#393C56;" vertex="1" parent="8pqbM3VbrS218knnvy2t-10">
          <mxGeometry y="120" width="140" height="30" as="geometry" />
        </mxCell>
        <mxCell id="8pqbM3VbrS218knnvy2t-15" value="Descripcion" style="text;strokeColor=none;fillColor=none;align=left;verticalAlign=middle;spacingLeft=4;spacingRight=4;overflow=hidden;points=[[0,0.5],[1,0.5]];portConstraint=eastwest;rotatable=0;whiteSpace=wrap;html=1;fontColor=#393C56;" vertex="1" parent="8pqbM3VbrS218knnvy2t-10">
          <mxGeometry y="150" width="140" height="30" as="geometry" />
        </mxCell>
        <mxCell id="8pqbM3VbrS218knnvy2t-17" style="edgeStyle=orthogonalEdgeStyle;rounded=0;orthogonalLoop=1;jettySize=auto;html=1;entryX=1;entryY=0.5;entryDx=0;entryDy=0;strokeColor=#001DBC;fontColor=#393C56;fillColor=#0050ef;" edge="1" parent="1" source="8pqbM3VbrS218knnvy2t-11" target="8pqbM3VbrS218knnvy2t-8">
          <mxGeometry relative="1" as="geometry" />
        </mxCell>
        <mxCell id="8pqbM3VbrS218knnvy2t-18" value="Clientes" style="swimlane;fontStyle=0;childLayout=stackLayout;horizontal=1;startSize=30;horizontalStack=0;resizeParent=1;resizeParentMax=0;resizeLast=0;collapsible=1;marginBottom=0;whiteSpace=wrap;html=1;strokeColor=#001DBC;fontColor=#ffffff;fillColor=#0050ef;swimlaneFillColor=#FFFFFF;" vertex="1" parent="1">
          <mxGeometry x="460" y="330" width="140" height="150" as="geometry" />
        </mxCell>
        <mxCell id="8pqbM3VbrS218knnvy2t-19" value="Cliente_Id (PK)" style="text;strokeColor=none;fillColor=none;align=left;verticalAlign=middle;spacingLeft=4;spacingRight=4;overflow=hidden;points=[[0,0.5],[1,0.5]];portConstraint=eastwest;rotatable=0;whiteSpace=wrap;html=1;fontColor=#393C56;" vertex="1" parent="8pqbM3VbrS218knnvy2t-18">
          <mxGeometry y="30" width="140" height="30" as="geometry" />
        </mxCell>
        <mxCell id="8pqbM3VbrS218knnvy2t-20" value="Nombre" style="text;strokeColor=none;fillColor=none;align=left;verticalAlign=middle;spacingLeft=4;spacingRight=4;overflow=hidden;points=[[0,0.5],[1,0.5]];portConstraint=eastwest;rotatable=0;whiteSpace=wrap;html=1;fontColor=#393C56;" vertex="1" parent="8pqbM3VbrS218knnvy2t-18">
          <mxGeometry y="60" width="140" height="30" as="geometry" />
        </mxCell>
        <mxCell id="8pqbM3VbrS218knnvy2t-21" value="Apellido" style="text;strokeColor=none;fillColor=none;align=left;verticalAlign=middle;spacingLeft=4;spacingRight=4;overflow=hidden;points=[[0,0.5],[1,0.5]];portConstraint=eastwest;rotatable=0;whiteSpace=wrap;html=1;fontColor=#393C56;" vertex="1" parent="8pqbM3VbrS218knnvy2t-18">
          <mxGeometry y="90" width="140" height="30" as="geometry" />
        </mxCell>
        <mxCell id="8pqbM3VbrS218knnvy2t-22" value="Activo" style="text;strokeColor=none;fillColor=none;align=left;verticalAlign=middle;spacingLeft=4;spacingRight=4;overflow=hidden;points=[[0,0.5],[1,0.5]];portConstraint=eastwest;rotatable=0;whiteSpace=wrap;html=1;fontColor=#393C56;" vertex="1" parent="8pqbM3VbrS218knnvy2t-18">
          <mxGeometry y="120" width="140" height="30" as="geometry" />
        </mxCell>
        <mxCell id="8pqbM3VbrS218knnvy2t-26" value="Cuentas" style="swimlane;fontStyle=0;childLayout=stackLayout;horizontal=1;startSize=30;horizontalStack=0;resizeParent=1;resizeParentMax=0;resizeLast=0;collapsible=1;marginBottom=0;whiteSpace=wrap;html=1;strokeColor=#001DBC;fontColor=#ffffff;fillColor=#0050ef;swimlaneFillColor=#FFFFFF;" vertex="1" parent="1">
          <mxGeometry x="274" y="420" width="140" height="180" as="geometry" />
        </mxCell>
        <mxCell id="8pqbM3VbrS218knnvy2t-27" value="Cuenta_Id (PK)" style="text;strokeColor=none;fillColor=none;align=left;verticalAlign=middle;spacingLeft=4;spacingRight=4;overflow=hidden;points=[[0,0.5],[1,0.5]];portConstraint=eastwest;rotatable=0;whiteSpace=wrap;html=1;fontColor=#393C56;" vertex="1" parent="8pqbM3VbrS218knnvy2t-26">
          <mxGeometry y="30" width="140" height="30" as="geometry" />
        </mxCell>
        <mxCell id="8pqbM3VbrS218knnvy2t-28" value="Cliente_Id (FK)" style="text;strokeColor=none;fillColor=none;align=left;verticalAlign=middle;spacingLeft=4;spacingRight=4;overflow=hidden;points=[[0,0.5],[1,0.5]];portConstraint=eastwest;rotatable=0;whiteSpace=wrap;html=1;fontColor=#393C56;" vertex="1" parent="8pqbM3VbrS218knnvy2t-26">
          <mxGeometry y="60" width="140" height="30" as="geometry" />
        </mxCell>
        <mxCell id="8pqbM3VbrS218knnvy2t-29" value="CUIT" style="text;strokeColor=none;fillColor=none;align=left;verticalAlign=middle;spacingLeft=4;spacingRight=4;overflow=hidden;points=[[0,0.5],[1,0.5]];portConstraint=eastwest;rotatable=0;whiteSpace=wrap;html=1;fontColor=#393C56;" vertex="1" parent="8pqbM3VbrS218knnvy2t-26">
          <mxGeometry y="90" width="140" height="30" as="geometry" />
        </mxCell>
        <mxCell id="8pqbM3VbrS218knnvy2t-30" value="CondicionFiscal" style="text;strokeColor=none;fillColor=none;align=left;verticalAlign=middle;spacingLeft=4;spacingRight=4;overflow=hidden;points=[[0,0.5],[1,0.5]];portConstraint=eastwest;rotatable=0;whiteSpace=wrap;html=1;fontColor=#393C56;" vertex="1" parent="8pqbM3VbrS218knnvy2t-26">
          <mxGeometry y="120" width="140" height="30" as="geometry" />
        </mxCell>
        <mxCell id="8pqbM3VbrS218knnvy2t-31" value="DomicilioFiscal" style="text;strokeColor=none;fillColor=none;align=left;verticalAlign=middle;spacingLeft=4;spacingRight=4;overflow=hidden;points=[[0,0.5],[1,0.5]];portConstraint=eastwest;rotatable=0;whiteSpace=wrap;html=1;fontColor=#393C56;" vertex="1" parent="8pqbM3VbrS218knnvy2t-26">
          <mxGeometry y="150" width="140" height="30" as="geometry" />
        </mxCell>
        <mxCell id="8pqbM3VbrS218knnvy2t-33" style="edgeStyle=orthogonalEdgeStyle;rounded=0;orthogonalLoop=1;jettySize=auto;html=1;strokeColor=#001DBC;fontColor=#393C56;fillColor=#0050ef;" edge="1" parent="1" source="8pqbM3VbrS218knnvy2t-27" target="8pqbM3VbrS218knnvy2t-7">
          <mxGeometry relative="1" as="geometry">
            <mxPoint x="230" y="416" as="targetPoint" />
          </mxGeometry>
        </mxCell>
        <mxCell id="8pqbM3VbrS218knnvy2t-34" value="FormasDePago" style="swimlane;fontStyle=0;childLayout=stackLayout;horizontal=1;startSize=30;horizontalStack=0;resizeParent=1;resizeParentMax=0;resizeLast=0;collapsible=1;marginBottom=0;whiteSpace=wrap;html=1;strokeColor=#001DBC;fontColor=#ffffff;fillColor=#0050ef;swimlaneFillColor=#FFFFFF;" vertex="1" parent="1">
          <mxGeometry x="-110" y="430" width="150" height="180" as="geometry" />
        </mxCell>
        <mxCell id="8pqbM3VbrS218knnvy2t-35" value="FormasDePago_Id (PK)" style="text;strokeColor=none;fillColor=none;align=left;verticalAlign=middle;spacingLeft=4;spacingRight=4;overflow=hidden;points=[[0,0.5],[1,0.5]];portConstraint=eastwest;rotatable=0;whiteSpace=wrap;html=1;fontColor=#393C56;" vertex="1" parent="8pqbM3VbrS218knnvy2t-34">
          <mxGeometry y="30" width="150" height="30" as="geometry" />
        </mxCell>
        <mxCell id="8pqbM3VbrS218knnvy2t-36" value="Nombre" style="text;strokeColor=none;fillColor=none;align=left;verticalAlign=middle;spacingLeft=4;spacingRight=4;overflow=hidden;points=[[0,0.5],[1,0.5]];portConstraint=eastwest;rotatable=0;whiteSpace=wrap;html=1;fontColor=#393C56;" vertex="1" parent="8pqbM3VbrS218knnvy2t-34">
          <mxGeometry y="60" width="150" height="30" as="geometry" />
        </mxCell>
        <mxCell id="8pqbM3VbrS218knnvy2t-37" value="Descripcion" style="text;strokeColor=none;fillColor=none;align=left;verticalAlign=middle;spacingLeft=4;spacingRight=4;overflow=hidden;points=[[0,0.5],[1,0.5]];portConstraint=eastwest;rotatable=0;whiteSpace=wrap;html=1;fontColor=#393C56;" vertex="1" parent="8pqbM3VbrS218knnvy2t-34">
          <mxGeometry y="90" width="150" height="30" as="geometry" />
        </mxCell>
        <mxCell id="8pqbM3VbrS218knnvy2t-38" value="Activo" style="text;strokeColor=none;fillColor=none;align=left;verticalAlign=middle;spacingLeft=4;spacingRight=4;overflow=hidden;points=[[0,0.5],[1,0.5]];portConstraint=eastwest;rotatable=0;whiteSpace=wrap;html=1;fontColor=#393C56;" vertex="1" parent="8pqbM3VbrS218knnvy2t-34">
          <mxGeometry y="120" width="150" height="30" as="geometry" />
        </mxCell>
        <mxCell id="8pqbM3VbrS218knnvy2t-39" value="Descripcion" style="text;strokeColor=none;fillColor=none;align=left;verticalAlign=middle;spacingLeft=4;spacingRight=4;overflow=hidden;points=[[0,0.5],[1,0.5]];portConstraint=eastwest;rotatable=0;whiteSpace=wrap;html=1;fontColor=#393C56;" vertex="1" parent="8pqbM3VbrS218knnvy2t-34">
          <mxGeometry y="150" width="150" height="30" as="geometry" />
        </mxCell>
        <mxCell id="8pqbM3VbrS218knnvy2t-40" style="edgeStyle=orthogonalEdgeStyle;rounded=0;orthogonalLoop=1;jettySize=auto;html=1;strokeColor=#001DBC;fontColor=#393C56;fillColor=#0050ef;" edge="1" parent="1" source="8pqbM3VbrS218knnvy2t-35" target="8pqbM3VbrS218knnvy2t-6">
          <mxGeometry relative="1" as="geometry" />
        </mxCell>
        <mxCell id="8pqbM3VbrS218knnvy2t-41" value="TicketsProductos" style="swimlane;fontStyle=0;childLayout=stackLayout;horizontal=1;startSize=30;horizontalStack=0;resizeParent=1;resizeParentMax=0;resizeLast=0;collapsible=1;marginBottom=0;whiteSpace=wrap;html=1;strokeColor=#001DBC;fontColor=#ffffff;fillColor=#0050ef;swimlaneFillColor=#FFFFFF;" vertex="1" parent="1">
          <mxGeometry x="-110" y="190" width="150" height="210" as="geometry" />
        </mxCell>
        <mxCell id="8pqbM3VbrS218knnvy2t-42" value="TicketsProductos_Id (PK)" style="text;strokeColor=none;fillColor=none;align=left;verticalAlign=middle;spacingLeft=4;spacingRight=4;overflow=hidden;points=[[0,0.5],[1,0.5]];portConstraint=eastwest;rotatable=0;whiteSpace=wrap;html=1;fontColor=#393C56;" vertex="1" parent="8pqbM3VbrS218knnvy2t-41">
          <mxGeometry y="30" width="150" height="30" as="geometry" />
        </mxCell>
        <mxCell id="8pqbM3VbrS218knnvy2t-43" value="Ticket_Id (FK)" style="text;strokeColor=none;fillColor=none;align=left;verticalAlign=middle;spacingLeft=4;spacingRight=4;overflow=hidden;points=[[0,0.5],[1,0.5]];portConstraint=eastwest;rotatable=0;whiteSpace=wrap;html=1;fontColor=#393C56;" vertex="1" parent="8pqbM3VbrS218knnvy2t-41">
          <mxGeometry y="60" width="150" height="30" as="geometry" />
        </mxCell>
        <mxCell id="8pqbM3VbrS218knnvy2t-44" value="Producto_Id (FK)" style="text;strokeColor=none;fillColor=none;align=left;verticalAlign=middle;spacingLeft=4;spacingRight=4;overflow=hidden;points=[[0,0.5],[1,0.5]];portConstraint=eastwest;rotatable=0;whiteSpace=wrap;html=1;fontColor=#393C56;" vertex="1" parent="8pqbM3VbrS218knnvy2t-41">
          <mxGeometry y="90" width="150" height="30" as="geometry" />
        </mxCell>
        <mxCell id="8pqbM3VbrS218knnvy2t-45" value="Cantidad" style="text;strokeColor=none;fillColor=none;align=left;verticalAlign=middle;spacingLeft=4;spacingRight=4;overflow=hidden;points=[[0,0.5],[1,0.5]];portConstraint=eastwest;rotatable=0;whiteSpace=wrap;html=1;fontColor=#393C56;" vertex="1" parent="8pqbM3VbrS218knnvy2t-41">
          <mxGeometry y="120" width="150" height="30" as="geometry" />
        </mxCell>
        <mxCell id="8pqbM3VbrS218knnvy2t-46" value="PrecioUnitario" style="text;strokeColor=none;fillColor=none;align=left;verticalAlign=middle;spacingLeft=4;spacingRight=4;overflow=hidden;points=[[0,0.5],[1,0.5]];portConstraint=eastwest;rotatable=0;whiteSpace=wrap;html=1;fontColor=#393C56;" vertex="1" parent="8pqbM3VbrS218knnvy2t-41">
          <mxGeometry y="150" width="150" height="30" as="geometry" />
        </mxCell>
        <mxCell id="8pqbM3VbrS218knnvy2t-49" value="Descuento" style="text;strokeColor=none;fillColor=none;align=left;verticalAlign=middle;spacingLeft=4;spacingRight=4;overflow=hidden;points=[[0,0.5],[1,0.5]];portConstraint=eastwest;rotatable=0;whiteSpace=wrap;html=1;fontColor=#393C56;" vertex="1" parent="8pqbM3VbrS218knnvy2t-41">
          <mxGeometry y="180" width="150" height="30" as="geometry" />
        </mxCell>
        <mxCell id="8pqbM3VbrS218knnvy2t-48" style="edgeStyle=orthogonalEdgeStyle;rounded=0;orthogonalLoop=1;jettySize=auto;html=1;entryX=1;entryY=0.5;entryDx=0;entryDy=0;strokeColor=#001DBC;fontColor=#393C56;fillColor=#0050ef;" edge="1" parent="1" source="8pqbM3VbrS218knnvy2t-2" target="8pqbM3VbrS218knnvy2t-43">
          <mxGeometry relative="1" as="geometry" />
        </mxCell>
        <mxCell id="8pqbM3VbrS218knnvy2t-50" value="Productos" style="swimlane;fontStyle=0;childLayout=stackLayout;horizontal=1;startSize=30;horizontalStack=0;resizeParent=1;resizeParentMax=0;resizeLast=0;collapsible=1;marginBottom=0;whiteSpace=wrap;html=1;strokeColor=#001DBC;fontColor=#ffffff;fillColor=#0050ef;swimlaneFillColor=#FFFFFF;" vertex="1" parent="1">
          <mxGeometry x="-300" y="170" width="150" height="210" as="geometry" />
        </mxCell>
        <mxCell id="8pqbM3VbrS218knnvy2t-51" value="Productos_Id (PK)" style="text;strokeColor=none;fillColor=none;align=left;verticalAlign=middle;spacingLeft=4;spacingRight=4;overflow=hidden;points=[[0,0.5],[1,0.5]];portConstraint=eastwest;rotatable=0;whiteSpace=wrap;html=1;fontColor=#393C56;" vertex="1" parent="8pqbM3VbrS218knnvy2t-50">
          <mxGeometry y="30" width="150" height="30" as="geometry" />
        </mxCell>
        <mxCell id="8pqbM3VbrS218knnvy2t-52" value="Categoria_Id" style="text;strokeColor=none;fillColor=none;align=left;verticalAlign=middle;spacingLeft=4;spacingRight=4;overflow=hidden;points=[[0,0.5],[1,0.5]];portConstraint=eastwest;rotatable=0;whiteSpace=wrap;html=1;fontColor=#393C56;" vertex="1" parent="8pqbM3VbrS218knnvy2t-50">
          <mxGeometry y="60" width="150" height="30" as="geometry" />
        </mxCell>
        <mxCell id="8pqbM3VbrS218knnvy2t-53" value="Nombre" style="text;strokeColor=none;fillColor=none;align=left;verticalAlign=middle;spacingLeft=4;spacingRight=4;overflow=hidden;points=[[0,0.5],[1,0.5]];portConstraint=eastwest;rotatable=0;whiteSpace=wrap;html=1;fontColor=#393C56;" vertex="1" parent="8pqbM3VbrS218knnvy2t-50">
          <mxGeometry y="90" width="150" height="30" as="geometry" />
        </mxCell>
        <mxCell id="8pqbM3VbrS218knnvy2t-54" value="Descripcion" style="text;strokeColor=none;fillColor=none;align=left;verticalAlign=middle;spacingLeft=4;spacingRight=4;overflow=hidden;points=[[0,0.5],[1,0.5]];portConstraint=eastwest;rotatable=0;whiteSpace=wrap;html=1;fontColor=#393C56;" vertex="1" parent="8pqbM3VbrS218knnvy2t-50">
          <mxGeometry y="120" width="150" height="30" as="geometry" />
        </mxCell>
        <mxCell id="8pqbM3VbrS218knnvy2t-55" value="Precio" style="text;strokeColor=none;fillColor=none;align=left;verticalAlign=middle;spacingLeft=4;spacingRight=4;overflow=hidden;points=[[0,0.5],[1,0.5]];portConstraint=eastwest;rotatable=0;whiteSpace=wrap;html=1;fontColor=#393C56;" vertex="1" parent="8pqbM3VbrS218knnvy2t-50">
          <mxGeometry y="150" width="150" height="30" as="geometry" />
        </mxCell>
        <mxCell id="8pqbM3VbrS218knnvy2t-56" value="Activo" style="text;strokeColor=none;fillColor=none;align=left;verticalAlign=middle;spacingLeft=4;spacingRight=4;overflow=hidden;points=[[0,0.5],[1,0.5]];portConstraint=eastwest;rotatable=0;whiteSpace=wrap;html=1;fontColor=#393C56;" vertex="1" parent="8pqbM3VbrS218knnvy2t-50">
          <mxGeometry y="180" width="150" height="30" as="geometry" />
        </mxCell>
        <mxCell id="8pqbM3VbrS218knnvy2t-57" value="Categorias" style="swimlane;fontStyle=0;childLayout=stackLayout;horizontal=1;startSize=30;horizontalStack=0;resizeParent=1;resizeParentMax=0;resizeLast=0;collapsible=1;marginBottom=0;whiteSpace=wrap;html=1;strokeColor=#001DBC;fontColor=#ffffff;fillColor=#0050ef;swimlaneFillColor=#FFFFFF;" vertex="1" parent="1">
          <mxGeometry x="-300" y="460" width="150" height="150" as="geometry" />
        </mxCell>
        <mxCell id="8pqbM3VbrS218knnvy2t-58" value="Categoria_Id (PK)" style="text;strokeColor=none;fillColor=none;align=left;verticalAlign=middle;spacingLeft=4;spacingRight=4;overflow=hidden;points=[[0,0.5],[1,0.5]];portConstraint=eastwest;rotatable=0;whiteSpace=wrap;html=1;fontColor=#393C56;" vertex="1" parent="8pqbM3VbrS218knnvy2t-57">
          <mxGeometry y="30" width="150" height="30" as="geometry" />
        </mxCell>
        <mxCell id="8pqbM3VbrS218knnvy2t-59" value="Nombre" style="text;strokeColor=none;fillColor=none;align=left;verticalAlign=middle;spacingLeft=4;spacingRight=4;overflow=hidden;points=[[0,0.5],[1,0.5]];portConstraint=eastwest;rotatable=0;whiteSpace=wrap;html=1;fontColor=#393C56;" vertex="1" parent="8pqbM3VbrS218knnvy2t-57">
          <mxGeometry y="60" width="150" height="30" as="geometry" />
        </mxCell>
        <mxCell id="8pqbM3VbrS218knnvy2t-60" value="Descripcion" style="text;strokeColor=none;fillColor=none;align=left;verticalAlign=middle;spacingLeft=4;spacingRight=4;overflow=hidden;points=[[0,0.5],[1,0.5]];portConstraint=eastwest;rotatable=0;whiteSpace=wrap;html=1;fontColor=#393C56;" vertex="1" parent="8pqbM3VbrS218knnvy2t-57">
          <mxGeometry y="90" width="150" height="30" as="geometry" />
        </mxCell>
        <mxCell id="8pqbM3VbrS218knnvy2t-61" value="Activo" style="text;strokeColor=none;fillColor=none;align=left;verticalAlign=middle;spacingLeft=4;spacingRight=4;overflow=hidden;points=[[0,0.5],[1,0.5]];portConstraint=eastwest;rotatable=0;whiteSpace=wrap;html=1;fontColor=#393C56;" vertex="1" parent="8pqbM3VbrS218knnvy2t-57">
          <mxGeometry y="120" width="150" height="30" as="geometry" />
        </mxCell>
        <mxCell id="8pqbM3VbrS218knnvy2t-64" style="edgeStyle=orthogonalEdgeStyle;rounded=0;orthogonalLoop=1;jettySize=auto;html=1;entryX=0;entryY=0.5;entryDx=0;entryDy=0;strokeColor=#001DBC;fontColor=#393C56;fillColor=#0050ef;" edge="1" parent="1" source="8pqbM3VbrS218knnvy2t-58" target="8pqbM3VbrS218knnvy2t-52">
          <mxGeometry relative="1" as="geometry">
            <mxPoint x="-290" y="505" as="sourcePoint" />
            <Array as="points">
              <mxPoint x="-320" y="505" />
              <mxPoint x="-320" y="245" />
            </Array>
          </mxGeometry>
        </mxCell>
        <mxCell id="8pqbM3VbrS218knnvy2t-65" style="edgeStyle=orthogonalEdgeStyle;rounded=0;orthogonalLoop=1;jettySize=auto;html=1;entryX=0;entryY=0.5;entryDx=0;entryDy=0;strokeColor=#001DBC;fontColor=#393C56;fillColor=#0050ef;" edge="1" parent="1" source="8pqbM3VbrS218knnvy2t-51" target="8pqbM3VbrS218knnvy2t-42">
          <mxGeometry relative="1" as="geometry" />
        </mxCell>
        <mxCell id="8pqbM3VbrS218knnvy2t-66" style="edgeStyle=orthogonalEdgeStyle;rounded=0;orthogonalLoop=1;jettySize=auto;html=1;entryX=1;entryY=0.5;entryDx=0;entryDy=0;strokeColor=#001DBC;fontColor=#393C56;fillColor=#0050ef;" edge="1" parent="1" source="8pqbM3VbrS218knnvy2t-19" target="8pqbM3VbrS218knnvy2t-28">
          <mxGeometry relative="1" as="geometry" />
        </mxCell>
        <mxCell id="8pqbM3VbrS218knnvy2t-69" style="edgeStyle=orthogonalEdgeStyle;rounded=0;orthogonalLoop=1;jettySize=auto;html=1;strokeColor=#001DBC;fontColor=#393C56;fillColor=#0050ef;" edge="1" parent="1" source="8pqbM3VbrS218knnvy2t-19" target="8pqbM3VbrS218knnvy2t-5">
          <mxGeometry relative="1" as="geometry" />
        </mxCell>
      </root>
    </mxGraphModel>
  </diagram>
</mxfile>
